# xmcd CD database file
#
# Track frame offsets:
#	150
#	10557
#	25049
#	40356
#	54225
#	71048
#	83547
#	96982
#	106917
#	121540
#	133191
#	147545
#
# Disc length: 2149 seconds
#
# Revision: 0
# Processed by: cddbd v1.5.1PL0 Copyright (c) Steve Scherf et al.
# Submitted via: CDex 1.51
#
DISCID=9508630c
DTITLE=Various Artist - Legendary Kings Of Country
DYEAR=2000
DGENRE=Country
TTITLE0=Rawhide - Frankie Laine
TTITLE1=Rhinestone Cowboy - Glen Cambell
TTITLE2=Okie From Muskogee  -Merie Haggard
TTITLE3=The Cattle Call - Eddy Arnold
TTITLE4=I Let My Mind Wander - Willie Nelson
TTITLE5=By The Time I Get To Phoenix - Glen Cambell
TTITLE6=High Noon - Frankie Laine
TTITLE7=Broken Promises - Willie Nelson
TTITLE8=Folsom Prison Blues - Merie Haggard
TTITLE9=Bouquet Of Roses - Eddy Arnold
TTITLE10=Mule Train - Frankie Laine
TTITLE11=Mama Tried - Merie Haggard
EXTD=YEAR: 2000
EXTT0=
EXTT1=
EXTT2=
EXTT3=
EXTT4=
EXTT5=
EXTT6=
EXTT7=
EXTT8=
EXTT9=
EXTT10=
EXTT11=
PLAYORDER=
